<?xml version="1.0" encoding="utf-8"?>
<!-- Generator: Adobe Illustrator 21.0.2, SVG Export Plug-In . SVG Version: 6.00 Build 0)  -->
<svg version="1.1" id="Layer_1" xmlns="http://www.w3.org/2000/svg" xmlns:xlink="http://www.w3.org/1999/xlink" x="0px" y="0px"
	 viewBox="0 0 512 512" style="enable-background:new 0 0 512 512;" xml:space="preserve">
<style type="text/css">
	.st0{fill:#211915;}
	.st1{fill:#00F300;}
	.st2{font-family:'matrix';}
	.st3{font-size:300px;}
</style>
<path class="st0" d="M432,512H80c-44,0-80-36-80-80V80C0,36,36,0,80,0h352c44,0,80,36,80,80v352C512,476,476,512,432,512z"/>
<path class="st1" d="M421.3,504H90.7C45.2,504,8,466.8,8,421.3V90.7C8,45.2,45.2,8,90.7,8h330.7C466.8,8,504,45.2,504,90.7v330.7
	C504,466.8,466.8,504,421.3,504z"/>
<path class="st0" d="M416,496H96c-44,0-80-36-80-80V96c0-44,36-80,80-80h320c44,0,80,36,80,80v320C496,460,460,496,416,496z"/>
<text transform="matrix(1 0 0 1 27.7041 365.3484)" class="st1 st2 st3">GMK</text>
</svg>
