<?xml version="1.0" encoding="utf-8"?>
<!-- Generator: Adobe Illustrator 21.0.2, SVG Export Plug-In . SVG Version: 6.00 Build 0)  -->
<svg version="1.1" id="Layer_1" xmlns="http://www.w3.org/2000/svg" xmlns:xlink="http://www.w3.org/1999/xlink" x="0px" y="0px"
	 viewBox="0 0 512 512" style="enable-background:new 0 0 512 512;" xml:space="preserve">
<style type="text/css">
	.st0{fill:#1C0C02;}
	.st1{fill:#E6ECF2;}
	.st2{fill:#FF7F01;}
	.st3{fill:#00563E;}
</style>
<rect class="st0" width="512" height="512"/>
<g>
	<path class="st1" d="M169.8,67.2c3.4,3.9,7.1,8.2,10.8,12.5c12.6,14.7,25.1,29.5,38,43.9c2.1,2.4,6.2,4.2,9.4,4.3
		c18.5,0.4,37,0.1,55.4,0.3c4.4,0.1,7.3-1.2,10.2-4.6c14.6-17.3,29.5-34.4,44.2-51.6c1.4-1.6,2.9-3.2,4.7-5.3
		c9.8,10.9,16.3,23.1,20.3,36.8c0.7,2.5-0.1,6.6,4.9,6.1c0.4,0,1.1,1.7,1.4,2.7c7.6,22,9.1,44.3,2.3,66.8c-1.3,4.3-0.6,7.3,1.9,10.9
		c15.5,21.9,22,47.3,26.8,73.1c2.8,14.8,4,30,6,45c-9.9,1.3-18.7,1.7-27.2,3.7c-24.5,5.8-43.4,20.7-60.2,38.6
		c-23.2,24.6-40.2,53.3-55.8,82.9c-1.9,3.7-4,7.3-6.8,12.2c-3.1-5.5-5.9-10.1-8.4-14.8c-15.2-28.7-31.8-56.3-54.2-80.1
		c-18.8-19.9-39.9-36-67.9-40.4c-6-0.9-12.2-1.1-19.5-1.7c1.4-12.3,2.3-24.3,4.1-36.1c4.1-26.4,9.7-52.6,24.1-75.5
		c5.6-8.9,7.1-16.4,4.3-26.6c-5.4-19.9-4.5-41,5.2-58.6C151.8,96.8,154.4,78.5,169.8,67.2z M256.3,430.1c1.6-2.8,2.9-5.1,4.1-7.4
		c15.9-30.1,33.8-58.7,58.3-82.7c21.3-20.8,45.3-36.2,76.1-38.2c0.8-0.1,1.6-0.5,2.5-0.9c0-2.3,0.3-4.6,0-6.6
		c-3.3-18.8-6-37.8-10.3-56.4c-4.1-17.9-11.4-34.6-23.1-49.2c-1.2-1.6-0.9-4.8-0.6-7.1c1.6-13.5,3.6-26.9,5-40.3
		c0.4-3.6-1.1-7.4-1.8-11.8c-2.6,2.4-4.3,3.9-6.2,5.8c-3.5-31.8-8.8-48.3-18.3-56.6c-1.5,1.6-2.9,3.2-4.4,4.8
		c-13.8,16-27.4,32.1-41.4,47.9c-1.8,2-5,3.7-7.6,3.8c-21.6,0.3-43.1,0.3-64.7,0c-2.6,0-6-1.6-7.7-3.6c-9.9-11-19.3-22.3-28.9-33.4
		c-5.7-6.6-11.4-13.2-17.6-20.4c-12.7,17.6-16.9,36.9-19.1,57.8c-1.2-2-2.3-4-4.2-7.3c-4.6,16.7-3.7,31.2,0.5,45.2
		c2.7,9,1.8,15.4-3.8,23.2c-13.8,19.1-19.1,41.8-23.5,64.6c-2.5,13.1-3.9,26.4-5.9,39.9c2.3,0.4,3.5,0.8,4.8,0.9
		c19.9,1.3,37.4,9,53.6,20.3c23.8,16.7,41.9,38.7,57.5,62.9C238.8,399.5,247.1,414.5,256.3,430.1z"/>
	<path d="M256.3,430.1c-9.2-15.6-17.5-30.6-26.8-44.9C213.9,361,195.8,339,172,322.3c-16.1-11.3-33.6-19-53.6-20.3
		c-1.3-0.1-2.5-0.5-4.8-0.9c1.9-13.4,3.3-26.8,5.9-39.9c4.4-22.7,9.7-45.4,23.5-64.6c5.6-7.8,6.5-14.3,3.8-23.2
		c-4.2-14-5.1-28.5-0.5-45.2c1.9,3.3,3,5.3,4.2,7.3c2.2-20.9,6.3-40.2,19.1-57.8c6.2,7.2,11.9,13.8,17.6,20.4
		c9.6,11.2,19.1,22.5,28.9,33.4c1.8,2,5.1,3.6,7.7,3.6c21.6,0.3,43.1,0.3,64.7,0c2.6,0,5.9-1.8,7.6-3.8c14-15.8,27.6-31.9,41.4-47.9
		c1.4-1.6,2.9-3.2,4.4-4.8c9.5,8.3,14.8,24.8,18.3,56.6c2-1.8,3.6-3.3,6.2-5.8c0.7,4.4,2.2,8.2,1.8,11.8c-1.4,13.5-3.4,26.9-5,40.3
		c-0.3,2.4-0.7,5.6,0.6,7.1c11.7,14.6,19,31.3,23.1,49.2c4.3,18.6,7,37.5,10.3,56.4c0.4,2.1,0,4.3,0,6.6c-0.9,0.3-1.7,0.8-2.5,0.9
		c-30.8,1.9-54.8,17.4-76.1,38.2c-24.5,23.9-42.5,52.6-58.3,82.7C259.2,425,257.9,427.3,256.3,430.1z M256,341.6
		c-7.1-4.2-17.7-2.4-21.5-12.9c-3,13.4,7.2,24.8,21.5,24.8c12.4,1.5,25.2-13.1,21.9-22.6c-3.4,2.1-7,4.7-10.8,6.6
		C263.7,339.3,259.8,340.3,256,341.6z M256.2,175.7c-11.3-1.3-22.6-2.7-34.6-4.1c10.6-8.7,21-17.2,31.5-25.7
		c-2.6-1.7-4.6-1.9-6.7-1.9c-7.9,0-15.9,0.4-23.7-0.2c-3.5-0.3-7.7-1.9-10.1-4.3c-7.8-8-14.8-16.8-22.2-25.2
		c-6.3-7.2-12.7-14.3-19.7-22c-12.2,20.8-14.5,41.8-9,63.9c-0.6,0.4-1.2,0.8-1.8,1.2c-1.8-2.9-3.6-5.8-6-9.5
		c-2.8,10.9,0,27.3,4.5,32.7c4.4-4.2,8.6-8.7,13.3-12.5c3-2.5,2.9-4.4,1.8-7.8c-3.2-9.7-6.7-19.5-8.1-29.5
		c-0.8-5.6,2.3-11.7,3.6-17.6c0.5,0,1.1,0.1,1.6,0.1c2.2,20.2,11.5,37.3,22.7,51.9c-11,8.3-22.5,14.8-31,24.1
		c-8.5,9.2-14.8,20.6-20.5,31.9c-7.4,14.6-10.6,30.4-9.5,36.1c6.3-4.5,12.9-9.1,19.4-13.8c0.5,0.6,1.1,1.1,1.6,1.7
		c-9.6,15.2-15.7,31.6-18.6,49.5c5.2,1.4,9.9,2.5,14.5,4c24.9,8.4,43.1,25.9,59.6,45.3c17,20,31,42.1,43.1,65.4
		c0.8,1.6,2.8,2.7,4.3,4c0.2,0.3,0.5,0.7,0.7,1c0.4-0.4,1-0.7,1.3-1.2c8.1-13.9,15.6-28.1,24.3-41.5c16-24.4,34-47.3,59.3-62.8
		c10.7-6.5,22.9-10.6,35.3-16.2c-2.9-16.2-8.7-32.7-18.5-47.9c0.6-0.5,1.2-1.1,1.7-1.6c6.5,4.5,13,9.1,20.5,14.3
		c-1.9-6.8-3.3-12.5-5.2-18.1c-5.3-16.1-10.9-32.1-22.9-44.9c-1.2-1.3-1.1-4.5-0.5-6.5c1.6-5.9,4.2-11.6,5.4-17.6
		c1.3-6.7,1.6-13.6,2.3-20.4c-0.6-0.1-1.2-0.3-1.8-0.4c-2.2,2.4-4.5,4.9-6.7,7.3c4.2-22.8,2.1-43.9-10.2-64.5
		c-13.1,14.9-25.3,29-37.8,42.8c-3.7,4.1-8.2,7.6-12.9,11.8c20.9,26.8,40.3,56.1,54.1,89.5c-11.9,1.5-22.3,2.8-34.5,4.4
		c19,15.5,36.3,29.6,53.4,43.6c-0.5,1.1-0.6,1.6-0.9,1.8c-2.8,1.7-5.6,3.4-8.5,5.1c-20.8,12.6-41.7,25.4-56,45.4
		c-13.8,19.3-25.6,40-38.3,60c-1,1.6-2.3,3-3.4,4.6c-7.9-15.6-14.9-31.8-23.9-46.8c-12.9-21.5-32.1-37.7-49.9-55.1
		c-7.7-7.5-14.7-15.6-22.7-24.1c15.2-12.9,30.9-26.3,46.6-39.6c0.5,0.4,1,0.7,1.5,1.1c-0.8,8.5-1.6,17-2.3,25.5
		c0.5,0.2,1,0.4,1.5,0.7c4.1-3.7,8.2-7.3,13.6-12c-0.5,4.4-0.8,6.9-1.1,9.5c-1.3,13.1-1.2,13,12,15c7.6,1.1,14.9,1.7,20.6-6.1
		c-3.6-4.5-7.8-9.1-11.1-14.1c-1.4-2.1-2.2-5.5-1.7-8c0.8-3.9,3.5-6.3,8.1-5.8c2.8,0.3,5.7-0.3,8.5-0.4c2.2,0.1,4.8-0.5,6.5,0.5
		c3,1.7,6,3.9,7.9,6.7c0.9,1.3-0.6,4.7-1.8,6.6c-1.8,2.9-4.4,5.4-6.6,8c0.5,0.5,0.9,1,1.4,1.5c8.2-5.3,16.5-10.6,25.5-16.4
		c-5.1-3.1-9.1-5.5-14.6-8.9c9.5-3,17.1-5.3,24.6-7.7c-0.1-0.4-0.2-0.8-0.3-1.2c-12.5,1.1-25,2.2-37.5,3.3c-0.3-0.6-0.5-1.1-0.8-1.7
		c11.8-10.4,15.8-30.6,39.8-26.9C287.2,189.2,273.7,179.3,256.2,175.7z M240.1,300.9c0.5-2.7,0.9-5.2,1.4-8.2
		c9.9,4.8,19.6,4.5,29.2,0c0.5,2.9,0.8,5.4,1.3,8.3c8.6-9.4,9-11.8,4.1-19c-13.5,5.3-26.7,5.3-40.1-0.1
		C231.2,289.2,231.7,292.1,240.1,300.9z M239.2,316.7c1.4,11.2,6.6,15.6,16.8,15.5c11.1-0.1,15.8-4.3,17.4-16.5
		c-4.9,6.3-9.9,9.1-17.3,8.8C249.1,324.2,243.3,323.1,239.2,316.7z M275.2,226.3c11,2.1,16.3-1,17.5-9.8
		C287.1,219.8,281.8,222.7,275.2,226.3z"/>
	<path class="st2" d="M256.2,240.8c-2.8,0.2-5.7,0.7-8.5,0.4c-4.7-0.5-7.4,2-8.1,5.8c-0.5,2.5,0.2,5.8,1.7,8
		c3.4,5,7.5,9.6,11.1,14.1c-5.7,7.8-12.9,7.2-20.6,6.1c-13.2-2-13.2-1.9-12-15c0.2-2.5,0.6-5.1,1.1-9.5c-5.3,4.7-9.5,8.4-13.6,12
		c-0.5-0.2-1-0.4-1.5-0.7c0.8-8.5,1.6-17,2.3-25.5c-0.5-0.4-1-0.7-1.5-1.1c-15.7,13.3-31.4,26.7-46.6,39.6c8,8.5,15,16.6,22.7,24.1
		c17.7,17.4,37,33.6,49.9,55.1c9,15,16,31.2,23.9,46.8c-0.1,4-0.2,8.1-0.4,12.1c-1.4-1.3-3.4-2.4-4.3-4
		c-12.1-23.3-26-45.4-43.1-65.4c-16.5-19.4-34.7-36.9-59.6-45.3c-4.5-1.5-9.2-2.6-14.5-4c2.8-17.8,8.9-34.3,18.6-49.5
		c-0.5-0.6-1.1-1.1-1.6-1.7c-6.5,4.6-13,9.3-19.4,13.8c-1.2-5.7,2.1-21.5,9.5-36.1c5.7-11.2,12-22.7,20.5-31.9
		c8.6-9.3,20.1-15.8,31-24.1c-11.1-14.6-20.5-31.7-22.7-51.9c-0.5,0-1.1-0.1-1.6-0.1c-1.3,5.9-4.4,12-3.6,17.6
		c1.4,10,4.9,19.8,8.1,29.5c1.1,3.4,1.3,5.4-1.8,7.8c-4.7,3.8-8.9,8.3-13.3,12.5c-4.5-5.4-7.2-21.7-4.5-32.7c2.4,3.8,4.2,6.7,6,9.5
		c0.6-0.4,1.2-0.8,1.8-1.2c-5.4-22.1-3.2-43.1,9-63.9c6.9,7.8,13.3,14.9,19.7,22c7.4,8.4,14.5,17.2,22.2,25.2
		c2.4,2.5,6.6,4,10.1,4.3c7.9,0.6,15.8,0.2,23.7,0.2c2.1,0,4.1,0.2,6.7,1.9c-10.4,8.5-20.8,17-31.5,25.7c11.9,1.4,23.2,2.7,34.6,4
		C256.2,197.4,256.2,219.1,256.2,240.8z M202.9,207c-0.3,0.4-0.6,0.8-0.9,1.3c3.4,4.5,6.9,8.9,10.2,13.5c4,5.6,7.7,10.9,16.1,10.3
		c6.5-0.4,13.1,0.8,21.5,1.4c-9.1-11.9-17-22.1-25.8-33.7c0.7,4.7,1.1,7.5,1.6,11.3C217.4,209.6,210.1,208.3,202.9,207z"/>
	<path class="st2" d="M256.1,353.5c-14.3,0-24.6-11.4-21.5-24.8c3.8,10.5,14.4,8.7,21.5,12.9C256.1,345.6,256.1,349.6,256.1,353.5z"
		/>
	<path class="st1" d="M240.1,300.9c-8.4-8.8-8.9-11.7-4.1-19c13.4,5.4,26.6,5.4,40.1,0.1c4.9,7.2,4.5,9.6-4.1,19
		c-0.4-2.9-0.8-5.4-1.3-8.3c-9.6,4.5-19.2,4.8-29.2,0C241,295.7,240.5,298.1,240.1,300.9z"/>
	<path class="st1" d="M239.2,316.7c4.1,6.5,9.9,7.5,17,7.8c7.4,0.3,12.4-2.5,17.3-8.8c-1.6,12.2-6.4,16.3-17.4,16.5
		C245.8,332.3,240.6,327.8,239.2,316.7z"/>
	<path class="st3" d="M256.1,413.2c0.1-4,0.2-8.1,0.4-12.1c1.1-1.5,2.4-3,3.4-4.6c12.7-20,24.5-40.7,38.3-60
		c14.3-20,35.3-32.8,56-45.4c2.8-1.7,5.7-3.4,8.5-5.1c0.3-0.2,0.4-0.7,0.9-1.8c-17.2-14-34.5-28.1-53.4-43.6
		c12.2-1.5,22.6-2.9,34.5-4.4c-13.8-33.4-33.2-62.6-54.1-89.5c4.6-4.2,9.2-7.7,12.9-11.8c12.5-13.9,24.7-28,37.8-42.8
		c12.4,20.6,14.4,41.7,10.2,64.5c2.2-2.4,4.5-4.9,6.7-7.3c0.6,0.1,1.2,0.3,1.8,0.4c-0.7,6.8-1,13.7-2.3,20.4
		c-1.2,6-3.8,11.7-5.4,17.6c-0.5,2-0.7,5.3,0.5,6.5c11.9,12.8,17.5,28.8,22.9,44.9c1.9,5.6,3.2,11.3,5.2,18.1
		c-7.5-5.2-14-9.8-20.5-14.3c-0.6,0.5-1.2,1.1-1.7,1.6c9.8,15.1,15.7,31.7,18.5,47.9c-12.4,5.6-24.6,9.7-35.3,16.2
		c-25.3,15.5-43.4,38.3-59.3,62.8c-8.8,13.4-16.2,27.7-24.3,41.5c-0.3,0.5-0.9,0.8-1.3,1.2C256.6,413.9,256.3,413.6,256.1,413.2z
		 M343.9,108.2c-0.9,0.1-1.8,0.2-2.6,0.4c-1.8,21.1-10.8,39.5-21.4,56.8c7.6,6.1,14.5,11.6,22.3,17.8c-0.5-1.9-0.6-2.9-1-3.8
		c-4.8-8.7-6.1-17.3-1.8-26.8c1.8-4.1,1.8-9,2.5-13.5c0.5-3.3,0.9-6.6,1.5-11.1c2.2,2.9,3.5,4.6,4.8,6.4c0.6-0.2,1.2-0.5,1.7-0.7
		C347.9,125.2,345.9,116.7,343.9,108.2z"/>
	<path class="st3" d="M256.2,240.8c0-21.7,0-43.4,0.1-65.1c17.5,3.6,31,13.5,44,28.9c-24-3.8-28,16.5-39.8,26.9
		c0.3,0.6,0.5,1.1,0.8,1.7c12.5-1.1,25-2.2,37.5-3.3c0.1,0.4,0.2,0.8,0.3,1.2c-7.6,2.4-15.2,4.7-24.6,7.7c5.5,3.4,9.5,5.8,14.6,8.9
		c-9,5.8-17.2,11.1-25.5,16.4c-0.5-0.5-0.9-1-1.4-1.5c2.2-2.7,4.8-5.1,6.6-8c1.2-1.9,2.7-5.3,1.8-6.6c-1.8-2.8-4.9-5-7.9-6.7
		C260.9,240.3,258.3,240.9,256.2,240.8z"/>
	<path class="st3" d="M256.1,353.5c0-4,0-7.9,0-11.9c3.7-1.3,7.6-2.3,11.1-4c3.9-1.9,7.4-4.5,10.8-6.6
		C281.2,340.4,268.4,355.1,256.1,353.5z"/>
	<path class="st1" d="M275.2,226.3c6.6-3.7,11.8-6.6,17.5-9.8C291.5,225.3,286.2,228.4,275.2,226.3z"/>
	<path d="M202.9,207c7.2,1.3,14.5,2.6,22.7,4.1c-0.5-3.8-0.9-6.6-1.6-11.3c8.9,11.6,16.7,21.8,25.8,33.7c-8.4-0.6-15-1.9-21.5-1.4
		c-8.4,0.6-12.1-4.7-16.1-10.3c-3.3-4.6-6.8-9-10.2-13.5C202.3,207.9,202.6,207.4,202.9,207z M237,226.4
		c-6.7-3.7-12.1-6.7-18.1-10.1C220.6,225.6,226.1,228.8,237,226.4z"/>
	<path d="M343.9,108.2c2,8.5,3.9,17,5.9,25.4c-0.6,0.2-1.2,0.5-1.7,0.7c-1.3-1.7-2.6-3.4-4.8-6.4c-0.6,4.5-1,7.8-1.5,11.1
		c-0.7,4.5-0.7,9.5-2.5,13.5c-4.3,9.5-3,18.2,1.8,26.8c0.5,0.8,0.5,1.9,1,3.8c-7.7-6.2-14.7-11.8-22.3-17.8
		c10.6-17.3,19.6-35.7,21.4-56.8C342.2,108.5,343.1,108.3,343.9,108.2z"/>
	<path class="st1" d="M237,226.4c-10.9,2.4-16.4-0.8-18.1-10.1C224.9,219.6,230.3,222.6,237,226.4z"/>
</g>
</svg>
