<?xml version="1.0" encoding="utf-8"?>
<!-- Generator: Adobe Illustrator 21.0.2, SVG Export Plug-In . SVG Version: 6.00 Build 0)  -->
<svg version="1.1" id="Layer_1" xmlns="http://www.w3.org/2000/svg" xmlns:xlink="http://www.w3.org/1999/xlink" x="0px" y="0px"
	 viewBox="0 0 512 512" style="enable-background:new 0 0 512 512;" xml:space="preserve">
<style type="text/css">
	.st0{fill:#1E120D;}
	.st1{fill:#00F300;}
	.st2{font-family:'SegoeUI-Semibold';}
	.st3{font-size:19.6436px;}
</style>
<g>
	<g>
		<circle class="st0" cx="256" cy="255" r="256"/>
	</g>
	<g>
		<path class="st1" d="M256,498.6C121.7,498.6,12.4,389.3,12.4,255C12.4,120.7,121.7,11.4,256,11.4c134.3,0,243.6,109.3,243.6,243.6
			C499.6,389.3,390.3,498.6,256,498.6z M256,15.8C124.1,15.8,16.8,123.1,16.8,255c0,131.9,107.3,239.2,239.2,239.2
			S495.2,386.9,495.2,255C495.2,123.1,387.9,15.8,256,15.8z"/>
	</g>
	<g>
		<g>
			<path class="st1" d="M110.5,288.6c-6.4,3.5-13.5,5.2-21.3,5.2c-9,0-16.4-2.8-22-8.4c-5.6-5.6-8.4-13.1-8.4-22.3
				c0-9.5,3.1-17.2,9.2-23.3c6.1-6.1,13.9-9.1,23.3-9.1c6.8,0,12.5,1,17.1,3v10.4c-4.7-3.1-10.3-4.7-16.8-4.7
				c-6.5,0-11.8,2.1-16,6.4c-4.2,4.3-6.2,9.8-6.2,16.7c0,7,1.8,12.5,5.4,16.6c3.6,4,8.4,6,14.6,6c4.2,0,7.8-0.8,10.9-2.4v-14.5H87.5
				v-8.5h23V288.6z"/>
			<path class="st1" d="M148.9,293.8c-8.8,0-15.9-2.9-21.2-8.6c-5.3-5.7-8-13.1-8-22.3c0-9.8,2.7-17.7,8.1-23.5
				c5.4-5.9,12.7-8.8,22-8.8c8.6,0,15.5,2.8,20.7,8.5c5.2,5.7,7.9,13.1,7.9,22.3c0,10-2.7,17.9-8.1,23.7
				C165,290.9,157.8,293.8,148.9,293.8z M149.3,239.6c-5.6,0-10.2,2.1-13.7,6.3c-3.5,4.2-5.3,9.7-5.3,16.5c0,6.8,1.7,12.3,5.1,16.4
				c3.4,4.1,7.9,6.2,13.4,6.2c5.9,0,10.5-2,13.9-5.9c3.4-4,5.1-9.5,5.1-16.6c0-7.3-1.6-12.9-4.9-16.9
				C159.6,241.6,155.1,239.6,149.3,239.6z M140.3,226.1c-1.5,0-2.7-0.5-3.8-1.5c-1.1-1-1.6-2.2-1.6-3.5c0-1.4,0.5-2.6,1.5-3.5
				c1-0.9,2.2-1.4,3.7-1.4c1.4,0,2.7,0.5,3.8,1.4c1.1,1,1.6,2.1,1.6,3.5c0,1.4-0.5,2.6-1.5,3.5C142.9,225.7,141.7,226.1,140.3,226.1
				z M158,226.1c-1.4,0-2.7-0.5-3.7-1.4c-1-0.9-1.6-2.1-1.6-3.6c0-1.4,0.5-2.6,1.5-3.5s2.2-1.4,3.6-1.4c1.5,0,2.8,0.5,3.8,1.4
				c1,1,1.6,2.1,1.6,3.5c0,1.4-0.5,2.6-1.5,3.5C160.8,225.7,159.5,226.1,158,226.1z"/>
			<path class="st1" d="M235.9,292.8h-13.2l-21.3-28c-0.8-1.1-1.3-1.8-1.4-2.1h-0.2v30.1h-10.1v-61.1h10.1v28.7h0.2
				c0.3-0.6,0.8-1.3,1.4-2.1l20.5-26.6h12.1l-24,29.3L235.9,292.8z"/>
			<path class="st1" d="M282.2,240.3h-17.6v52.5h-10.1v-52.5H237v-8.6h45.2V240.3z"/>
			<path class="st1" d="M338.2,268.1c0,17.2-8.1,25.7-24.4,25.7c-15.6,0-23.4-8.3-23.4-24.8v-37.4h10.1V267c0,12,4.7,18,14,18
				c9,0,13.5-5.8,13.5-17.3v-35.9h10.1V268.1z M305.4,226.1c-1.5,0-2.7-0.5-3.8-1.5c-1.1-1-1.6-2.2-1.6-3.5c0-1.4,0.5-2.6,1.5-3.5
				c1-0.9,2.2-1.4,3.7-1.4c1.4,0,2.7,0.5,3.8,1.4c1.1,1,1.6,2.1,1.6,3.5c0,1.4-0.5,2.6-1.5,3.5C308,225.6,306.8,226.1,305.4,226.1z
				 M323.1,226.1c-1.4,0-2.7-0.5-3.7-1.4c-1-0.9-1.6-2.1-1.6-3.6c0-1.4,0.5-2.6,1.5-3.5c1-0.9,2.2-1.4,3.6-1.4
				c1.5,0,2.8,0.5,3.8,1.4c1,1,1.6,2.1,1.6,3.5c0,1.4-0.5,2.6-1.5,3.5C325.9,225.6,324.6,226.1,323.1,226.1z"/>
			<path class="st1" d="M399.8,292.8h-11.9l-9.8-16.4c-0.9-1.5-1.7-2.8-2.6-3.9c-0.8-1.1-1.7-1.9-2.6-2.6s-1.8-1.2-2.8-1.5
				c-1-0.3-2.2-0.5-3.5-0.5h-4.1v24.8h-10.1v-61.1h20.1c2.9,0,5.5,0.3,7.9,1c2.4,0.7,4.5,1.7,6.3,3.1c1.8,1.4,3.2,3.1,4.2,5.2
				c1,2.1,1.5,4.5,1.5,7.2c0,2.2-0.3,4.1-1,5.9c-0.6,1.8-1.5,3.4-2.7,4.8c-1.2,1.4-2.6,2.6-4.3,3.6c-1.7,1-3.5,1.8-5.6,2.3v0.2
				c1.1,0.6,2.1,1.3,2.9,2.1c0.8,0.8,1.6,1.5,2.3,2.3c0.7,0.8,1.5,1.7,2.2,2.7c0.7,1,1.5,2.2,2.4,3.5L399.8,292.8z M362.6,239.9
				v19.9h8.4c1.6,0,3-0.2,4.3-0.7c1.3-0.5,2.5-1.2,3.4-2.1c1-0.9,1.7-2,2.3-3.3c0.5-1.3,0.8-2.8,0.8-4.4c0-2.9-0.9-5.2-2.8-6.9
				c-1.8-1.6-4.5-2.5-8-2.5H362.6z"/>
			<path class="st1" d="M453.1,292.8h-13.2l-21.3-28c-0.8-1.1-1.3-1.8-1.4-2.1H417v30.1h-10.1v-61.1H417v28.7h0.2
				c0.3-0.6,0.8-1.3,1.4-2.1l20.5-26.6h12.1l-24,29.3L453.1,292.8z"/>
		</g>
		<g>
			<text transform="matrix(1 0 0 1 158.0942 332.5723)" class="st1 st2 st3">K  A  R  A  G  Ü  Z  E  L</text>
			<rect x="77.5" y="325" class="st1" width="70.9" height="2"/>
			<rect x="361.4" y="325" class="st1" width="70.9" height="2"/>
		</g>
		<g>
			<rect x="348.8" y="182.8" class="st1" width="82.9" height="2.3"/>
			<rect x="80.2" y="182.8" class="st1" width="82.9" height="2.3"/>
			<text transform="matrix(1 0 0 1 183.2964 190.8916)" class="st1 st2 st3">T  O  N  Y  A  L  I</text>
		</g>
	</g>
</g>
</svg>
