<?xml version="1.0" encoding="utf-8"?>
<!-- Generator: Adobe Illustrator 21.0.2, SVG Export Plug-In . SVG Version: 6.00 Build 0)  -->
<svg version="1.1" id="Layer_1" xmlns="http://www.w3.org/2000/svg" xmlns:xlink="http://www.w3.org/1999/xlink" x="0px" y="0px"
	 viewBox="0 0 512 512" style="enable-background:new 0 0 512 512;" xml:space="preserve">
<style type="text/css">
	.st0{fill:#1E120D;}
	.st1{fill:#00F300;}
	.st2{display:none;fill:#00F300;}
	.st3{font-family:'SegoeUI-Semibold';}
	.st4{font-size:16.1139px;}
</style>
<rect class="st0" width="512" height="512"/>
<rect x="7" y="7" class="st1" width="496" height="496"/>
<rect x="15" y="15" class="st0" width="480" height="480"/>
<g>
	<g>
		<circle class="st0" cx="256" cy="256" r="210"/>
	</g>
	<g>
		<path class="st2" d="M256,455.8c-110.2,0-199.8-89.6-199.8-199.8S145.8,56.2,256,56.2S455.8,145.8,455.8,256
			S366.2,455.8,256,455.8z M256,59.8c-108.2,0-196.2,88-196.2,196.2s88,196.2,196.2,196.2s196.2-88,196.2-196.2S364.2,59.8,256,59.8
			z"/>
	</g>
	<g>
		<g>
			<path class="st1" d="M136.6,283.6c-5.2,2.8-11,4.3-17.4,4.3c-7.4,0-13.4-2.3-18-6.9s-6.9-10.7-6.9-18.3c0-7.8,2.5-14.1,7.5-19.1
				s11.4-7.5,19.1-7.5c5.6,0,10.3,0.8,14.1,2.4v8.6c-3.8-2.6-8.4-3.8-13.7-3.8c-5.3,0-9.7,1.8-13.1,5.3s-5.1,8.1-5.1,13.7
				c0,5.8,1.5,10.3,4.4,13.6c2.9,3.3,6.9,4.9,12,4.9c3.4,0,6.4-0.7,9-2v-11.9h-10.6v-7h18.8L136.6,283.6L136.6,283.6z"/>
			<path class="st1" d="M168.1,287.9c-7.2,0-13-2.3-17.4-7c-4.3-4.7-6.5-10.8-6.5-18.3c0-8.1,2.2-14.5,6.6-19.3
				c4.4-4.8,10.4-7.2,18-7.2c7,0,12.7,2.3,17,7s6.5,10.8,6.5,18.3c0,8.2-2.2,14.7-6.6,19.4C181.4,285.5,175.5,287.9,168.1,287.9z
				 M168.5,243.3c-4.6,0-8.3,1.7-11.2,5.1c-2.9,3.4-4.3,7.9-4.3,13.5s1.4,10.1,4.2,13.5s6.5,5.1,11,5.1c4.8,0,8.6-1.6,11.4-4.9
				c2.8-3.2,4.2-7.8,4.2-13.6c0-6-1.3-10.6-4-13.9C176.9,245,173.2,243.3,168.5,243.3z M161.1,232.3c-1.2,0-2.3-0.4-3.1-1.2
				c-0.9-0.8-1.3-1.8-1.3-2.9c0-1.1,0.4-2.1,1.2-2.9c0.8-0.8,1.8-1.2,3-1.2s2.2,0.4,3.1,1.2c0.9,0.8,1.3,1.7,1.3,2.9
				c0,1.1-0.4,2.1-1.3,2.9C163.2,231.9,162.2,232.3,161.1,232.3z M175.6,232.3c-1.2,0-2.2-0.4-3-1.2c-0.9-0.8-1.3-1.7-1.3-2.9
				c0-1.1,0.4-2.1,1.2-2.9s1.8-1.2,3-1.2s2.3,0.4,3.1,1.2c0.9,0.8,1.3,1.7,1.3,2.9c0,1.1-0.4,2.1-1.2,2.9
				C177.9,231.9,176.9,232.3,175.6,232.3z"/>
			<path class="st1" d="M239.5,287h-10.8l-17.4-22.9c-0.7-0.9-1-1.4-1.2-1.7H210V287h-8.3v-50.1h8.3v23.6h0.1
				c0.3-0.5,0.7-1.1,1.2-1.7l16.8-21.9h10L218.4,261L239.5,287z"/>
			<path class="st1" d="M277.5,243.9h-14.4V287h-8.3v-43.1h-14.4v-7.1h37.1V243.9z"/>
			<path class="st1" d="M323.4,266.7c0,14.1-6.7,21.1-20,21.1c-12.8,0-19.2-6.8-19.2-20.3v-30.7h8.3v29c0,9.8,3.8,14.8,11.5,14.8
				c7.4,0,11.1-4.7,11.1-14.2v-29.5h8.3L323.4,266.7L323.4,266.7z M296.5,232.3c-1.2,0-2.3-0.4-3.1-1.2s-1.3-1.8-1.3-2.9
				c0-1.1,0.4-2.1,1.2-2.9c0.8-0.8,1.8-1.2,3-1.2s2.2,0.4,3.1,1.2s1.3,1.7,1.3,2.8s-0.4,2.1-1.3,2.9
				C298.7,231.9,297.7,232.3,296.5,232.3z M311.1,232.3c-1.2,0-2.2-0.4-3-1.2c-0.9-0.8-1.3-1.7-1.3-2.9c0-1.1,0.4-2.1,1.2-2.9
				c0.8-0.8,1.8-1.2,3-1.2s2.3,0.4,3.1,1.2c0.9,0.8,1.3,1.7,1.3,2.8s-0.4,2.1-1.2,2.9C313.3,231.9,312.3,232.3,311.1,232.3z"/>
			<path class="st1" d="M373.9,287h-9.7l-8-13.4c-0.7-1.2-1.4-2.3-2.1-3.2c-0.7-0.9-1.4-1.6-2.1-2.2s-1.5-1-2.3-1.2
				c-0.8-0.3-1.8-0.4-2.8-0.4h-3.4V287h-8.3v-50.1h16.5c2.4,0,4.5,0.3,6.5,0.8s3.7,1.4,5.2,2.5s2.6,2.5,3.4,4.2s1.2,3.7,1.2,5.9
				c0,1.8-0.3,3.4-0.8,4.9s-1.3,2.8-2.2,4c-1,1.2-2.1,2.1-3.5,3c-1.4,0.8-2.9,1.4-4.6,1.9v0.1c0.9,0.5,1.7,1.1,2.4,1.7
				c0.7,0.6,1.3,1.3,1.9,1.9c0.6,0.7,1.2,1.4,1.8,2.2c0.6,0.8,1.3,1.8,2,2.9L373.9,287z M343.5,243.6v16.3h6.9
				c1.3,0,2.5-0.2,3.5-0.6c1.1-0.4,2-1,2.8-1.7s1.4-1.7,1.9-2.7c0.4-1.1,0.7-2.3,0.7-3.6c0-2.4-0.8-4.3-2.3-5.6
				c-1.5-1.4-3.7-2-6.5-2L343.5,243.6L343.5,243.6z"/>
			<path class="st1" d="M417.7,287h-10.8l-17.5-22.9c-0.7-0.9-1-1.4-1.2-1.7h-0.1V287h-8.3v-50.1h8.3v23.6h0.1
				c0.3-0.5,0.7-1.1,1.2-1.7l16.8-21.9h10L396.5,261L417.7,287z"/>
		</g>
		<g>
			<text transform="matrix(1 0 0 1 175.6865 319.6328)" class="st1 st3 st4">K  A  R  A  G  Ü  Z  E  L</text>
			<rect x="109.6" y="313.4" class="st1" width="58.2" height="1.6"/>
			<rect x="342.5" y="313.4" class="st1" width="58.2" height="1.6"/>
		</g>
		<g>
			<rect x="332.2" y="196.8" class="st1" width="68" height="1.9"/>
			<rect x="111.8" y="196.8" class="st1" width="68" height="1.9"/>
			<text transform="matrix(1 0 0 1 196.3599 203.4106)" class="st1 st3 st4">T  O  N  Y  A  L  I</text>
		</g>
	</g>
</g>
</svg>
