<?xml version="1.0" encoding="utf-8"?>
<!-- Generator: Adobe Illustrator 21.0.2, SVG Export Plug-In . SVG Version: 6.00 Build 0)  -->
<svg version="1.1" id="Layer_1" xmlns="http://www.w3.org/2000/svg" xmlns:xlink="http://www.w3.org/1999/xlink" x="0px" y="0px"
	 viewBox="0 0 512 512" style="enable-background:new 0 0 512 512;" xml:space="preserve">
<style type="text/css">
	.st0{fill:#211915;}
	.st1{fill:#00F300;}
	.st2{font-family:'matrix';}
	.st3{font-size:300px;}
</style>
<circle cx="256" cy="256" r="256"/>
<circle class="st0" cx="256" cy="256" r="240"/>
<text transform="matrix(1 0 0 1 27.7041 365.3479)" class="st1 st2 st3">GMK</text>
<g>
	<path class="st1" d="M256,502C120.4,502,10,391.6,10,256C10,120.4,120.4,10,256,10c135.6,0,246,110.4,246,246
		C502,391.6,391.6,502,256,502z M256,14.4C122.8,14.4,14.4,122.8,14.4,256c0,133.2,108.4,241.6,241.6,241.6S497.6,389.2,497.6,256
		C497.6,122.8,389.2,14.4,256,14.4z"/>
</g>
</svg>
