<?xml version="1.0" encoding="utf-8"?>
<!-- Generator: Adobe Illustrator 21.0.2, SVG Export Plug-In . SVG Version: 6.00 Build 0)  -->
<svg version="1.1" id="Layer_1" xmlns="http://www.w3.org/2000/svg" xmlns:xlink="http://www.w3.org/1999/xlink" x="0px" y="0px"
	 viewBox="0 0 512 512" style="enable-background:new 0 0 512 512;" xml:space="preserve">
<style type="text/css">
	.st0{fill:#180303;}
	.st1{display:none;}
	.st2{display:inline;fill:#E23B3B;}
	.st3{display:none;fill:none;}
	.st4{fill:#E23B3B;}
	.st5{font-family:'MyriadPro-Regular';}
	.st6{font-size:300px;}
	.st7{fill:none;}
</style>
<rect class="st0" width="512" height="512"/>
<g class="st1">
	<circle class="st2" cx="256" cy="256" r="145"/>
</g>
<g>
	<path class="st3" d="M423.2,230H88.8c-1.3,8.5-2,17.2-2,26s0.7,17.5,2,26h334.4c1.3-8.5,2-17.2,2-26S424.5,238.5,423.2,230z"/>
	<path class="st3" d="M256,86.8c-84.6,0-154.7,62.1-167.2,143.2h334.4C410.7,148.9,340.6,86.8,256,86.8z"/>
	<path class="st3" d="M256,425.2c84.6,0,154.7-62.1,167.2-143.2H88.8C101.3,363.1,171.4,425.2,256,425.2z"/>
	<g>
		<path class="st4" d="M256,86.8c84.6,0,154.7,62.1,167.2,143.2h5.9C416.5,145.7,343.8,81,256,81S95.5,145.7,82.9,230h5.9
			C101.3,148.9,171.4,86.8,256,86.8z"/>
	</g>
	<g class="st1">
		<path class="st2" d="M425.2,256c0,8.8-0.7,17.5-2,26h5.9c1.3-8.5,1.9-17.2,1.9-26s-0.7-17.5-1.9-26h-5.9
			C424.5,238.5,425.2,247.2,425.2,256z"/>
	</g>
	<g>
		<path class="st4" d="M423.2,282c-12.5,81.1-82.6,143.2-167.2,143.2S101.3,363.1,88.8,282h-5.9c12.6,84.3,85.3,149,173.1,149
			s160.5-64.7,173.1-149H423.2z"/>
	</g>
	<g class="st1">
		<path class="st2" d="M86.8,256c0-8.8,0.7-17.5,2-26h-5.9c-1.3,8.5-1.9,17.2-1.9,26s0.7,17.5,1.9,26h5.9
			C87.5,273.5,86.8,264.8,86.8,256z"/>
	</g>
</g>
<text transform="matrix(1 0 0 1 171.9568 348.9812)" class="st4 st5 st6">G</text>
<path id="SVGID_x5F_1_x5F_" class="st7" d="M441,256c0,102.2-82.8,185-185,185S71,358.2,71,256S153.8,71,256,71S441,153.8,441,256z"
	/>
<text><textPath  xlink:href="#SVGID_x5F_1_x5F_" startOffset="35.4736%">
<tspan  class="st4" style="font-family:'CascadiaCode-Roman'; font-size:60px;">GÖKTÜRK</tspan></textPath>
</text>
<path id="SVGID_x5F_2_x5F_" class="st7" d="M491,256c0,129.8-105.2,235-235,235S21,385.8,21,256S126.2,21,256,21S491,126.2,491,256z
	"/>
<text><textPath  xlink:href="#SVGID_x5F_2_x5F_" startOffset="-4652.1934%">
<tspan  class="st4" style="font-family:'CascadiaCode-Roman'; font-size:60px;">KARAGÜZEL</tspan></textPath>
</text>
<g>
	<rect x="369" y="254" class="st4" width="130" height="4"/>
	<rect x="17" y="254" class="st4" width="150" height="4"/>
	<rect x="218.5" y="254" class="st4" width="55" height="4"/>
</g>
</svg>
